<svg xmlns="http://www.w3.org/2000/svg" width="24" height="24" viewBox="0 0 24 24" fill="none" stroke="#3B82F6" stroke-width="2" stroke-linecap="round" stroke-linejoin="round">
  <path d="M10.1 2.182L5.387 7.962a2.272 2.272 0 0 0-.523 1.862l.678 5.415a2.273 2.273 0 0 0 3.168 1.747l2.381-.95a2.273 2.273 0 0 0 1.074-.807l3.262-4.534a2.273 2.273 0 0 0-1.337-3.569l-3.474-.523"></path>
  <path d="M11.6 12.218l-2.8-3.09"></path>
  <path d="M7.539 17.281l-.746 2.478a2.272 2.272 0 0 1-3.36 1.341l-.512-.318a2.272 2.272 0 0 1-.86-3.134l1.616-2.5"></path>
  <path d="M17.354 13.339l2.01.543a2.272 2.272 0 0 1 1.316 3.386l-1.502 2.272a2.273 2.273 0 0 1-3.973-.549l-.956-2.388"></path>
</svg>